#!OML:ASF H:\Terrain\Patient Classification 1\Animal2\Wednesday\Animal2.ASF
:FULLY-SPECIFIED
:DEGREES
1133
root 22.5196 18.0725 -7.33686 -1.98062 15.973 6.73866
lowerback -6.18318 0.861805 8.17898
upperback -8.78916 1.1132 1.78433
thorax -5.66822 0.1537 -2.68429
lowerneck -7.90011 9.2636 16.0322
upperneck 5.85464 13.0218 -22.1365
head 5.69877 5.87479 -8.61644
rclavicle -3.97569e-015 -2.22639e-014
rhumerus 7.04094 -47.8181 -6.00845
rradius 58.6734
rwrist -43.1089
rhand -13.2864 25.7914
rfingers 7.12502
rthumb 12.8171 -3.79513
lclavicle -3.97569e-015 -2.22639e-014
lhumerus -18.2674 20.2756 -14.9859
lradius 58.0106
lwrist 92.5944
lhand -2.44818 16.6227
lfingers 7.12502
lthumb 23.2435 45.2399
rfemur 2.86807 -9.43693 16.138
rtibia 16.9318
rfoot -34.2289 -12.5129
rtoes 29.6062
lfemur -18.1088 -1.56003 -15.1443
ltibia 25.2629
lfoot -16.7019 8.52407
ltoes -30.9635
1134
root 22.5343 18.0686 -7.33319 -2.00257 16.6667 6.92854
lowerback -6.0855 0.735837 8.11137
upperback -9.28942 0.990338 1.61244
thorax -6.28154 0.0587044 -2.8291
lowerneck -6.81643 9.12806 16.4445
upperneck 5.96449 12.9574 -22.1674
head 5.55531 5.91867 -8.75076
rclavicle 3.97569e-015 -1.27222e-014
rhumerus 6.83321 -47.527 -6.12456
rradius 59.0383
rwrist -42.4472
rhand -13.1933 26.5668
rfingers 7.12502
rthumb 12.9068 -3.01403
lclavicle 3.97569e-015 -1.27222e-014
lhumerus -18.2375 18.7369 -15.2243
lradius 57.9599
lwrist 92.5966
lhand -1.92948 16.4074
lfingers 7.12502
lthumb 23.741 44.961
rfemur 3.11145 -9.72204 15.8393
rtibia 16.8667
rfoot -34.0487 -11.9696
rtoes 29.5048
lfemur -18.158 -1.57635 -15.2282
ltibia 25.1216
lfoot -16.625 8.78755
ltoes -32.1468
1135
root 22.5479 18.0608 -7.32721 -2.03022 17.324 7.07886
lowerback -7.13159 0.83546 7.78727
upperback -8.47049 0.972235 1.75235
thorax -4.80038 0.144547 -2.49401
lowerneck -8.10809 9.18962 15.8827
upperneck 5.8236 12.9632 -22.5267
head 5.73858 5.81773 -8.72858
rclavicle 1.98785e-014 3.02153e-014
rhumerus 7.29934 -49.4459 -5.94358
rradius 58.8393
rwrist -41.4473
rhand -13.398 27.1295
rfingers 7.12502
rthumb 12.7095 -2.46373
lclavicle 1.98785e-014 3.02153e-014
lhumerus -18.3418 19.6528 -14.6347
lradius 57.4137
lwrist 92.1919
lhand -1.38337 16.5618
lfingers 7.12502
lthumb 24.2647 45.0463
rfemur 3.36811 -9.88257 15.6113
rtibia 16.7733
rfoot -34.0264 -11.1638
rtoes 30.6813
lfemur -18.2413 -1.52589 -15.2749
ltibia 24.9859
lfoot -16.3434 9.44229
ltoes -34.7748
1136
root 22.5585 18.0539 -7.3192 -2.07772 18.0042 7.1209
lowerback -7.36069 0.79092 7.80612
upperback -8.78031 0.911774 1.64456
thorax -5.01301 0.0978228 -2.61654
lowerneck -7.14886 8.97227 16.4155
upperneck 5.83508 12.7908 -22.9841
head 5.60963 5.79272 -9.04482
rclavicle -1.90833e-014 3.65764e-014
rhumerus 7.13838 -49.1576 -5.55983
rradius 58.3786
rwrist -41.2141
rhand -13.2891 27.0062
rfingers 7.12502
rthumb 12.8146 -2.5805
lclavicle -1.90833e-014 3.65764e-014
lhumerus -18.0826 18.3319 -14.6753
lradius 56.9943
lwrist 92.0637
lhand -0.905042 17.1631
lfingers 7.12502
lthumb 24.7232 45.5856
rfemur 3.63683 -9.94944 15.5411
rtibia 16.6539
rfoot -33.9814 -10.9156
rtoes 29.9752
lfemur -18.3199 -1.87392 -15.1608
ltibia 24.8462
lfoot -16.0945 10.0771
ltoes -35.8538
1137
root 22.5702 18.0489 -7.30753 -2.24533 18.6841 7.03869
lowerback -7.30701 0.769021 7.87352
upperback -8.92658 0.899015 1.62384
thorax -5.204 0.0787276 -2.67637
lowerneck -7.33466 8.95807 16.4049
upperneck 6.26802 12.8226 -22.9382
head 5.77344 5.78772 -9.02208
rclavicle 5.24792e-014 -2.22639e-014
rhumerus 7.28706 -49.2939 -5.13506
rradius 57.5315
rwrist -41.5066
rhand -13.2046 26.3554
rfingers 7.12502
rthumb 12.896 -3.22617
lclavicle 5.24792e-014 -2.22639e-014
lhumerus -17.7709 17.2485 -14.5209
lradius 56.4923
lwrist 91.8265
lhand -1.3036 17.3408
lfingers 7.12502
lthumb 24.3412 45.8151
rfemur 4.03594 -10.0364 15.5892
rtibia 16.5345
rfoot -33.7263 -11.2573
rtoes 27.655
lfemur -18.2911 -2.29993 -14.9078
ltibia 24.6914
lfoot -16.359 10.0339
ltoes -33.6186
1138
root 22.5868 18.0424 -7.29493 -2.44619 19.3025 7.00187
lowerback -7.29855 0.779728 7.82281
upperback -8.91212 0.916227 1.59468
thorax -5.19037 0.0910579 -2.67854
lowerneck -7.97804 9.06003 16.3791
upperneck 6.81163 12.9411 -22.6485
head 6.04984 5.80127 -8.88228
rclavicle 1.51076e-014 -4.77083e-015
rhumerus 7.6419 -49.8498 -4.97156
rradius 56.4724
rwrist -41.478
rhand -13.8117 25.728
rfingers 7.12502
rthumb 12.3107 -3.88958
lclavicle 1.51076e-014 -4.77083e-015
lhumerus -17.2993 16.704 -14.2986
lradius 55.7544
lwrist 91.3057
lhand -1.74981 17.4307
lfingers 7.12502
lthumb 23.9133 45.9617
rfemur 4.53472 -10.3592 15.5103
rtibia 16.3668
rfoot -33.5624 -11.1855
rtoes 26.3359
lfemur -18.2363 -2.22958 -14.7729
ltibia 24.5564
lfoot -16.7308 9.46022
ltoes -29.9863
1139
root 22.6051 18.0312 -7.28832 -2.67533 19.8137 6.92518
lowerback -7.36468 0.780793 7.83613
upperback -8.84948 0.906007 1.53835
thorax -5.08582 0.0889154 -2.74487
lowerneck -8.46734 9.20423 16.7911
upperneck 7.25373 13.1035 -22.6283
head 6.33201 5.85053 -8.91378
rclavicle 4.13472e-014 4.29375e-014
rhumerus 7.98973 -50.3987 -4.97632
rradius 55.3668
rwrist -41.5456
rhand -14.4858 25.2347
rfingers 7.12502
rthumb 11.6606 -4.42086
lclavicle 4.13472e-014 4.29375e-014
lhumerus -16.8071 16.8653 -14.2111
lradius 54.8628
lwrist 90.4759
lhand -1.57271 17.9373
lfingers 7.12502
lthumb 24.0832 46.446
rfemur 5.04789 -10.527 15.4706
rtibia 16.1005
rfoot -33.7237 -10.3335
rtoes 27.6495
lfemur -18.2302 -2.01556 -14.6248
ltibia 24.4712
lfoot -16.6722 9.72394
ltoes -30.7487
1140
root 22.624 18.0197 -7.28545 -2.99005 20.3001 6.75811
lowerback -7.40073 0.734358 7.99807
upperback -8.77797 0.833497 1.57552
thorax -4.9983 0.0503576 -2.79795
lowerneck -8.622 9.37334 16.8646
upperneck 7.38521 13.3185 -22.4963
head 6.43863 5.94929 -8.84333
rclavicle -1.51076e-014 -1.90833e-014
rhumerus 8.43388 -50.6088 -4.91025
rradius 54.2075
rwrist -42.2113
rhand -14.7001 24.854
rfingers 7.12502
rthumb 11.454 -4.8131
lclavicle -1.51076e-014 -1.90833e-014
lhumerus -16.6165 16.8685 -14.1978
lradius 54.2225
lwrist 89.659
lhand -1.72706 18.318
lfingers 7.12502
lthumb 23.9352 46.8462
rfemur 5.60503 -10.5017 15.5316
rtibia 15.7691
rfoot -33.7635 -9.52128
rtoes 29.1857
lfemur -18.1861 -2.05768 -14.3693
ltibia 24.4175
lfoot -16.5491 10.5406
ltoes -33.6031
1141
root 22.6402 18.0139 -7.27887 -3.35991 20.8475 6.59376
lowerback -7.40986 0.64044 8.11686
upperback -8.71228 0.704794 1.66663
thorax -4.93868 -0.0126646 -2.77266
lowerneck -8.26366 9.51687 16.5835
upperneck 6.92157 13.4729 -22.1334
head 6.21354 6.06459 -8.64582
rclavicle -2.70347e-014 -3.97569e-014
rhumerus 8.99348 -50.8312 -4.99311
rradius 53.197
rwrist -42.645
rhand -14.9944 24.6091
rfingers 7.12502
rthumb 11.1701 -5.07358
lclavicle -2.70347e-014 -3.97569e-014
lhumerus -16.6581 16.2621 -14.2882
lradius 53.8621
lwrist 89.4687
lhand -1.94902 18.4974
lfingers 7.12502
lthumb 23.7223 47.0533
rfemur 6.27382 -10.5704 15.5851
rtibia 15.4004
rfoot -33.4938 -9.25493
rtoes 29.353
lfemur -18.0774 -2.00972 -14.142
ltibia 24.3706
lfoot -16.6168 10.6342
ltoes -33.6025
